<svg width="70" height="70" viewBox="0 0 70 70" fill="none" xmlns="http://www.w3.org/2000/svg">
<circle cx="35" cy="35" r="35" fill="#C9C9C9"/>
<path d="M35.5 17C37.6802 17 39.9166 17.0495 42.0841 17.1305L44.6443 17.2385L47.0949 17.3668L49.3899 17.504L51.4859 17.648C53.7607 17.8016 55.9011 18.6581 57.5308 20.0668C59.1604 21.4755 60.1749 23.3462 60.3957 25.3497L60.4976 26.306L60.6889 28.3535C60.8674 30.4752 61 32.7883 61 35C61 37.2117 60.8674 39.5248 60.6889 41.6465L60.4976 43.694C60.4645 44.0225 60.4314 44.3397 60.3957 44.6502C60.1748 46.6541 59.16 48.5251 57.5298 49.9338C55.8997 51.3426 53.7586 52.1989 51.4834 52.352L49.3924 52.4937L47.0974 52.6332L44.6443 52.7615L42.0841 52.8695C39.8907 52.9536 37.6955 52.9971 35.5 53C33.3045 52.9971 31.1093 52.9536 28.9159 52.8695L26.3557 52.7615L23.9051 52.6332L21.6101 52.4937L19.514 52.352C17.2393 52.1984 15.0989 51.3419 13.4692 49.9332C11.8396 48.5245 10.8251 46.6538 10.6043 44.6502L10.5024 43.694L10.3111 41.6465C10.1161 39.4351 10.0124 37.2181 10 35C10 32.7883 10.1326 30.4752 10.3111 28.3535L10.5024 26.306C10.5355 25.9775 10.5686 25.6602 10.6043 25.3497C10.825 23.3466 11.8391 21.4762 13.4682 20.0675C15.0974 18.6589 17.2372 17.8021 19.5115 17.648L21.6051 17.504L23.9001 17.3668L26.3531 17.2385L28.9133 17.1305C31.1076 17.0464 33.3037 17.0029 35.5 17ZM35.5 21.5C33.3962 21.5 31.2313 21.5495 29.125 21.626L26.6311 21.7318L24.2367 21.8555L21.9876 21.9905L19.9272 22.1323C18.8442 22.2 17.8235 22.604 17.0459 23.2724C16.2683 23.9408 15.784 24.8306 15.6789 25.784C15.3805 28.5042 15.1 31.8905 15.1 35C15.1 38.1095 15.3805 41.4958 15.6789 44.216C15.8956 46.178 17.6602 47.7035 19.9272 47.8677L21.9876 48.0073L24.2367 48.1422L26.6311 48.2682L29.125 48.374C31.2313 48.4505 33.3962 48.5 35.5 48.5C37.6037 48.5 39.7687 48.4505 41.875 48.374L44.3689 48.2682L46.7633 48.1445L49.0124 48.0095L51.0729 47.8677C52.1558 47.8 53.1765 47.396 53.9541 46.7276C54.7317 46.0592 55.216 45.1694 55.3212 44.216C55.6195 41.4958 55.9 38.1095 55.9 35C55.9 31.8905 55.6195 28.5042 55.3212 25.784C55.216 24.8306 54.7317 23.9408 53.9541 23.2724C53.1765 22.604 52.1558 22.2 51.0729 22.1323L49.0124 21.9927L46.7633 21.8577L44.3689 21.7318L41.875 21.626C39.7512 21.5454 37.6258 21.5034 35.5 21.5ZM30.4 29.5437C30.3998 29.3238 30.4606 29.1072 30.5769 28.9127C30.6932 28.7183 30.8616 28.5518 31.0675 28.4278C31.2733 28.3039 31.5104 28.2261 31.758 28.2014C32.0057 28.1767 32.2564 28.2057 32.4885 28.286L32.695 28.376L43.405 33.83C43.6183 33.9386 43.7987 34.091 43.9309 34.2742C44.0632 34.4575 44.1434 34.6662 44.1646 34.8827C44.1859 35.0991 44.1477 35.3169 44.0531 35.5175C43.9586 35.7181 43.8106 35.8956 43.6218 36.035L43.405 36.17L32.695 41.6262C32.4792 41.7365 32.2361 41.7986 31.9869 41.807C31.7376 41.8154 31.4899 41.77 31.2651 41.6746C31.0404 41.5792 30.8454 41.4368 30.6973 41.2597C30.5492 41.0827 30.4524 40.8764 30.4153 40.6588L30.4 40.4563V29.5437Z" fill="white"/>
</svg>
