<svg width="70" height="70" viewBox="0 0 70 70" fill="none" xmlns="http://www.w3.org/2000/svg">
<circle cx="35" cy="35" r="35" fill="#C9C9C9"/>
<path fill-rule="evenodd" clip-rule="evenodd" d="M60.5947 44.8622C59.406 42.433 57.8397 40.2138 55.9558 38.2899C55.3257 37.5673 54.666 36.8719 53.9783 36.2055L53.8953 36.1235C53.64 35.8726 53.388 35.6183 53.1393 35.3607C55.7147 31.7259 57.9184 27.8342 59.7163 23.746L59.7884 23.5819L59.8386 23.4089C60.0768 22.604 60.3477 21.074 59.3863 19.6904C58.3899 18.2624 56.7971 18.0051 55.7286 18.0051H50.8188C49.7907 17.9576 48.7742 18.2413 47.9147 18.8156C47.0552 19.3899 46.3967 20.2255 46.0335 21.2026C44.9769 23.7563 43.654 26.1878 42.0873 28.4557V22.6173C42.0873 21.8634 42.0174 20.5995 41.2199 19.5351C40.2672 18.2579 38.8884 18.0051 37.9314 18.0051H30.1395C29.1228 17.9814 28.136 18.3554 27.3835 19.0497C26.631 19.744 26.1704 20.7054 26.0972 21.7348L26.0907 21.8346V21.9344C26.0907 23.0098 26.5102 23.8036 26.8467 24.3025C26.9974 24.5265 27.157 24.7305 27.2597 24.8591L27.2815 24.8879C27.3908 25.0254 27.4629 25.1163 27.535 25.2183C27.7272 25.48 28.0004 25.888 28.079 26.939V30.2053C26.5149 27.5473 25.2325 24.7288 24.253 21.7969L24.2356 21.7481L24.2181 21.7015C23.9515 20.9942 23.5254 19.9653 22.6711 19.1804C21.6747 18.2601 20.4948 18.0051 19.4219 18.0051H14.44C13.354 18.0051 12.0452 18.2624 11.0685 19.3067C10.1093 20.3356 10 21.5685 10 22.2204V22.5175L10.0612 22.8058C11.4406 29.3045 14.2832 35.3911 18.3665 40.5893C20.2334 43.5768 22.7678 46.0758 25.7643 47.8834C28.7608 49.691 32.1349 50.7565 35.6131 50.9933L35.7027 51H35.7944C37.3808 51 39.0348 50.8603 40.2781 50.0199C41.9541 48.8846 42.0873 47.1439 42.0873 46.2747V43.7513C42.5178 44.1061 43.051 44.5806 43.7043 45.2192C44.4953 46.0219 45.1246 46.7182 45.6643 47.3258L45.9527 47.6495C46.3722 48.124 46.7852 48.5919 47.161 48.9755C47.633 49.4567 48.2164 49.9867 48.9462 50.3791C49.7394 50.8027 50.5719 50.9956 51.4546 50.9956H56.4387C57.4897 50.9956 58.9952 50.7428 60.055 49.4966C61.2087 48.1396 61.1213 46.4743 60.7585 45.2791L60.693 45.064L60.5947 44.8622ZM48.0962 45.0973C47.419 44.3291 46.7217 43.5793 46.0051 42.8488L45.9986 42.8422C43.0335 39.9418 41.6503 39.4385 40.6714 39.4385C40.1492 39.4385 39.5745 39.4961 39.2009 39.9707C39.0327 40.197 38.9223 40.4621 38.8797 40.7423C38.827 41.0677 38.8036 41.3972 38.8098 41.7268V46.2747C38.8098 46.8402 38.718 47.0774 38.4602 47.2504C38.1171 47.4832 37.3851 47.6717 35.8141 47.6717C32.8298 47.4656 29.9363 46.5437 27.3715 44.9817C24.8067 43.4197 22.6438 41.2623 21.0607 38.6868L21.0432 38.658L21.0214 38.6314C17.2174 33.8266 14.5664 28.1902 13.2776 22.1672C13.2863 21.8789 13.3475 21.7038 13.448 21.5973C13.5507 21.4864 13.802 21.3312 14.44 21.3312H19.4219C19.9747 21.3312 20.2631 21.4554 20.4707 21.6439C20.7023 21.8612 20.9077 22.2271 21.1525 22.879C22.3761 26.5288 24.028 29.9436 25.5946 32.4537C26.3769 33.7065 27.146 34.7509 27.8409 35.4893C28.1883 35.8574 28.527 36.1634 28.8525 36.3807C29.165 36.5891 29.5212 36.7554 29.8883 36.7554C30.0805 36.7554 30.3056 36.7333 30.5219 36.6379C30.7555 36.5332 30.9479 36.3521 31.0682 36.1235C31.2932 35.7066 31.3566 35.0924 31.3566 34.2875V26.8082C31.2408 24.9944 30.7011 23.9721 30.1767 23.2471C30.0705 23.102 29.9612 22.9593 29.8489 22.8191L29.8205 22.7836C29.7273 22.6688 29.6384 22.5504 29.5539 22.4288C29.4464 22.2932 29.3817 22.1279 29.3682 21.9543C29.3854 21.7781 29.4682 21.6152 29.5998 21.499C29.7314 21.3827 29.9018 21.3219 30.0762 21.329H37.9314C38.3815 21.329 38.5323 21.4399 38.6088 21.5441C38.718 21.6882 38.8098 21.9876 38.8098 22.6173V32.6577C38.8098 33.8507 39.3517 34.6578 40.1383 34.6578C41.0429 34.6578 41.6962 34.1012 42.8368 32.9437L42.8565 32.9216L42.874 32.9016C45.4326 29.7358 47.5231 26.2086 49.0795 22.4311L49.0882 22.4044C49.2052 22.0707 49.4265 21.7849 49.7185 21.5908C50.0104 21.3966 50.3569 21.3047 50.7052 21.329H55.7308C56.4125 21.329 56.6354 21.5064 56.7097 21.6106C56.7861 21.7215 56.8408 21.9588 56.7097 22.4244C54.9148 26.4963 52.6961 30.3618 50.0912 33.9549L50.0737 33.9815C49.8224 34.374 49.5449 34.8086 49.5056 35.3053C49.4619 35.8419 49.6891 36.3275 50.089 36.8508C50.3796 37.2854 50.9805 37.8819 51.5901 38.4872L51.6469 38.5449C52.2849 39.1791 52.9776 39.8664 53.5326 40.5317L53.5479 40.5472L53.5632 40.5649C55.2182 42.2401 56.5944 44.1767 57.6383 46.2991C57.8044 46.8756 57.7038 47.1728 57.5727 47.3258C57.422 47.5032 57.0833 47.6695 56.4409 47.6695H51.4546C51.1148 47.6779 50.7785 47.5977 50.4779 47.4366C50.1095 47.2192 49.7752 46.9471 49.4859 46.6295C49.1734 46.3124 48.8348 45.9288 48.4196 45.4609L48.0962 45.0973Z" fill="white"/>
</svg>
